<svg width="47" height="45" viewBox="0 0 47 45" fill="none" xmlns="http://www.w3.org/2000/svg">
<rect width="47" height="45" rx="6" fill="#BC2626"/>
<path d="M17.3395 15.4545V30H14.2642V15.4545H17.3395ZM28.854 15.4545H31.9293V24.9006C31.9293 25.9612 31.676 26.8892 31.1694 27.6847C30.6675 28.4801 29.9644 29.1004 29.06 29.5455C28.1557 29.9858 27.1022 30.206 25.8995 30.206C24.6921 30.206 23.6362 29.9858 22.7319 29.5455C21.8275 29.1004 21.1244 28.4801 20.6225 27.6847C20.1206 26.8892 19.8697 25.9612 19.8697 24.9006V15.4545H22.945V24.6378C22.945 25.1918 23.0657 25.6842 23.3072 26.1151C23.5534 26.5459 23.899 26.8845 24.3441 27.1307C24.7892 27.3769 25.3076 27.5 25.8995 27.5C26.4961 27.5 27.0146 27.3769 27.4549 27.1307C27.9 26.8845 28.2433 26.5459 28.4847 26.1151C28.7309 25.6842 28.854 25.1918 28.854 24.6378V15.4545Z" fill="white"/>
</svg>
